<?xml version="1.0" standalone="no"?>
<!DOCTYPE svg PUBLIC "-//W3C//DTD SVG 20010904//EN"
 "http://www.w3.org/TR/2001/REC-SVG-20010904/DTD/svg10.dtd">
<svg version="1.0" xmlns="http://www.w3.org/2000/svg"
 width="200.000000pt" height="200.000000pt" viewBox="0 0 200.000000 200.000000"
 preserveAspectRatio="xMidYMid meet">

<g transform="translate(0.000000,200.000000) scale(0.100000,-0.100000)"
fill="#000000" stroke="none">
<path d="M596 1538 c-79 -80 -116 -326 -81 -534 28 -164 98 -262 167 -235 140
54 181 533 62 738 -42 73 -95 84 -148 31z m91 -33 c54 -38 70 -217 26 -301
-17 -33 -25 -39 -53 -39 -28 0 -36 6 -53 39 -29 54 -35 168 -12 235 14 43 44
81 65 81 3 0 15 -7 27 -15z"/>
<path d="M1317 1546 c-130 -120 -135 -604 -8 -750 67 -76 154 -10 196 150 39
147 26 403 -27 525 -39 91 -108 124 -161 75z m90 -48 c52 -57 63 -202 22 -285
-20 -41 -28 -48 -53 -48 -40 0 -64 36 -77 116 -14 82 1 166 38 209 30 36 43
37 70 8z"/>
<path d="M350 769 c-42 -13 -80 -46 -80 -70 0 -10 15 -28 32 -41 29 -20 45
-23 130 -23 83 0 101 3 125 21 19 15 28 30 28 50 0 24 -7 32 -40 48 -46 23
-144 30 -195 15z"/>
<path d="M1536 766 c-54 -20 -80 -48 -71 -76 22 -70 249 -83 304 -17 20 25 6
64 -32 83 -44 23 -152 28 -201 10z"/>
<path d="M813 635 c-6 -18 13 -35 77 -67 36 -19 62 -23 130 -23 76 0 92 3 153
33 62 31 81 52 57 67 -5 3 -26 -5 -47 -19 -57 -36 -108 -49 -183 -44 -55 3
-77 10 -119 36 -60 37 -60 37 -68 17z"/>
</g>
</svg>
